<?xml version="1.0" standalone="no"?><!DOCTYPE svg PUBLIC "-//W3C//DTD SVG 1.1//EN" "http://www.w3.org/Graphics/SVG/1.1/DTD/svg11.dtd"><svg t="1738307100042" class="icon" viewBox="0 0 1024 1024" version="1.1" xmlns="http://www.w3.org/2000/svg" p-id="4246" xmlns:xlink="http://www.w3.org/1999/xlink" width="200" height="200"><path d="M1019.56911 88.7c-3.9-4.8-9.7-7.6-15.9-7.6H310.16911c-36 0-68 3.6-95.2 10.8-27.5 7.2-52.7 18-74.9 32-21.8 13.7-42.7 30.6-62.3 50.1-19 19-43.6 46.8-73.1 82.5-7.1 8.7-6 21.4 2.6 28.6L60.56911 330c4.2 3.5 9.6 5.3 15.1 4.7 5.5-0.5 10.5-3.2 13.9-7.5 30.6-38 58.7-63.4 83.4-75.5 24.6-12.1 55.7-18.2 92.4-18.2h1.3l-49.9 214C167.16911 660.6 113.36911 797 56.76911 853.2c-2.9 2.8-4.8 6.5-5.6 10.4L42.66911 905c-1.2 6 0.3 12.3 4.2 17 3.9 4.8 9.7 7.5 15.8 7.5h179.1c8.8 0 16.6-5.6 19.4-14 6.3-19.1 15-50.1 26.6-94.7 11.2-43.6 21.3-84.9 29.8-122.8l100.4-464.5h209.7c-11.5 32.9-24.4 75.2-39.3 128.6-17.8 63.7-31.6 119-41.3 164.2l-18.6 85.3c-16.2 73.7-24.1 128.7-24.1 168.3 0 47.5 12.7 86.8 37.7 116.6 25.9 30.9 61.6 46.6 106 46.6 43.5 0 84.9-11.5 123.2-34.1 36.8-21.8 77.7-57.2 121.6-105.1 7.6-8.3 7.1-21.1-1.1-28.8l-49-45.6c-4.1-3.8-9.3-5.8-15.2-5.4-5.6 0.3-10.8 2.9-14.4 7.2-51.5 61-84.7 73.8-103.5 73.8-13.2 0-16.7-4.9-18.1-6.7-2.7-3.7-7.1-13.3-7.1-37 0-26.5 6.1-67.1 18.1-120.5l91.8-407.2H979.06911c9.6 0 17.9-6.7 20-16l24.5-111.5c1.4-6.3-0.1-12.7-4-17.5z" fill="#242F44" p-id="4247"></path></svg>